<svg width="40" height="14" viewBox="0 0 40 14" fill="none" xmlns="http://www.w3.org/2000/svg">
<path d="M3.04411 2.76546C3.87033 1.63172 4.81459 0.101173 6.76213 0.101173C10.008 0.0444855 12.8998 -0.352324 15.7916 0.951478C18.2113 2.76546 16.0277 6.28006 13.49 6.79024C14.3752 7.52717 15.1424 8.60423 14.8473 9.79466C14.0801 13.2526 10.5392 13.7627 7.70638 13.8761C5.52279 13.8761 3.16214 14.1596 1.09657 13.536C0.889623 13.4674 0.699044 13.3598 0.536046 13.2194C0.373047 13.079 0.240922 12.9088 0.147442 12.7186C0.0539619 12.5285 0.00101501 12.3223 -0.00828379 12.1122C-0.0175826 11.9021 0.0169544 11.6923 0.0932955 11.4953C0.9748 9.24488 2.04042 7.06506 3.28017 4.97626C4.16541 3.61577 6.11295 4.01258 7.52934 3.84252C7.29327 4.29601 6.82114 5.08963 6.58508 5.54313C8.41458 5.59981 10.4801 5.93994 12.1326 4.91957C12.6637 4.57945 13.0769 3.78583 12.7228 3.21896C12.0736 2.48203 10.9523 2.5954 10.067 2.48203C7.72201 2.41461 5.37497 2.50933 3.04411 2.76546ZM4.34246 10.5883C4.04738 11.4386 5.46377 11.2685 5.99491 11.3819C7.88343 11.6086 10.7162 11.3252 11.3064 9.45453C11.3441 9.31673 11.3526 9.17303 11.3312 9.03201C11.3098 8.891 11.259 8.75559 11.1819 8.63386C11.1048 8.51214 11.0029 8.40662 10.8823 8.3236C10.7617 8.24059 10.6249 8.18179 10.4801 8.15073C9.02375 7.85833 7.52448 7.81993 6.05393 8.03736C4.93262 8.43417 4.63754 9.68128 4.34246 10.5883Z" fill="#727272"/>
<path d="M18.8612 2.82112C18.7902 2.82192 18.7201 2.80606 18.6569 2.77493C18.5938 2.74379 18.5395 2.69832 18.4988 2.64246C18.4581 2.5866 18.4322 2.52205 18.4233 2.45439C18.4145 2.38674 18.423 2.31804 18.448 2.25425C18.9202 1.29057 19.5693 0.326888 20.7497 0.326888C23.8185 0.213514 26.8874 0.213514 29.9562 0.326888C30.0619 0.325697 30.1662 0.349892 30.2597 0.397275C30.3532 0.444657 30.4329 0.513726 30.4915 0.598206C30.5501 0.682685 30.5859 0.779898 30.5955 0.881012C30.605 0.982126 30.5882 1.08394 30.5464 1.17719C29.8382 2.59437 28.8349 3.95486 28.7169 5.59878C31.7267 4.52173 33.4382 1.63069 36.389 0.326888C37.4936 0.0810029 38.6399 0.0616868 39.7529 0.270201C39.8101 0.280141 39.8629 0.306076 39.9048 0.344755C39.9467 0.383433 39.9758 0.433133 39.9884 0.48762C40.001 0.542108 39.9966 0.598958 39.9757 0.65104C39.9548 0.703122 39.9183 0.748118 39.8709 0.780385C37.5693 2.42431 35.2677 4.01155 33.1431 5.82553C36.0349 7.63952 34.0283 11.2675 35.1496 13.8751C33.9103 13.705 32.1988 14.3853 31.3136 13.2515C31.0775 11.891 31.5496 10.4172 31.3136 9.05669C31.2649 8.78599 31.1481 8.53083 30.9732 8.31345C30.7983 8.09608 30.5707 7.9231 30.3103 7.80958C29.3701 7.53606 28.3696 7.51645 27.4185 7.75289C25.9431 9.28344 25.648 11.5509 24.3497 13.2515C23.3464 14.2719 21.7529 13.9318 20.4546 13.9885C22.2251 10.4172 23.9956 6.8459 25.766 3.3313C23.7005 2.481 21.2218 2.76443 18.8612 2.82112Z" fill="#727272"/>
<path d="M18.1535 6.39386C16.5601 5.60024 17.9175 4.35313 18.9798 4.01301C20.3113 3.86117 21.6543 3.82323 22.9929 3.89963C21.5765 6.90405 20.1601 9.96515 18.7437 12.9696C18.6784 13.1257 18.5744 13.2642 18.4407 13.3729C18.307 13.4815 18.1476 13.5572 17.9765 13.5931C17.031 13.8212 16.0596 13.9354 15.0847 13.9332C15.0207 13.9355 14.9572 13.922 14.9003 13.8939C14.8433 13.8659 14.7947 13.8243 14.7592 13.7732C14.7237 13.722 14.7025 13.663 14.6974 13.6017C14.6924 13.5404 14.7038 13.4789 14.7306 13.4231C15.8519 11.0422 16.9732 8.71803 18.1535 6.39386Z" fill="#727272"/>
</svg>
